<mxfile host="65bd71144e">
    <diagram id="moAj0ZgK-iWVBSQXD-7P" name="MLD-MCD peps">
        <mxGraphModel dx="389" dy="1152" grid="0" gridSize="10" guides="1" tooltips="1" connect="1" arrows="1" fold="1" page="0" pageScale="1" pageWidth="827" pageHeight="1169" background="#333333" math="0" shadow="0">
            <root>
                <mxCell id="0"/>
                <mxCell id="1" parent="0"/>
                <mxCell id="30" style="edgeStyle=none;html=1;rounded=0;startArrow=none;" parent="1" source="41" target="35" edge="1">
                    <mxGeometry relative="1" as="geometry">
                        <mxPoint x="675" y="-552.0000000000001" as="targetPoint"/>
                    </mxGeometry>
                </mxCell>
                <mxCell id="2" value="users" style="swimlane;fontStyle=0;childLayout=stackLayout;horizontal=1;startSize=30;horizontalStack=0;resizeParent=1;resizeParentMax=0;resizeLast=0;collapsible=1;marginBottom=0;fillColor=#6a00ff;fontColor=#ffffff;strokeColor=#3700CC;rounded=0;" parent="1" vertex="1">
                    <mxGeometry x="484" y="-629" width="140" height="150" as="geometry"/>
                </mxCell>
                <mxCell id="3" value="id" style="text;strokeColor=none;fillColor=default;align=left;verticalAlign=middle;spacingLeft=4;spacingRight=4;overflow=hidden;points=[[0,0.5],[1,0.5]];portConstraint=eastwest;rotatable=0;rounded=0;" parent="2" vertex="1">
                    <mxGeometry y="30" width="140" height="30" as="geometry"/>
                </mxCell>
                <mxCell id="4" value="username" style="text;strokeColor=none;fillColor=default;align=left;verticalAlign=middle;spacingLeft=4;spacingRight=4;overflow=hidden;points=[[0,0.5],[1,0.5]];portConstraint=eastwest;rotatable=0;rounded=0;" parent="2" vertex="1">
                    <mxGeometry y="60" width="140" height="30" as="geometry"/>
                </mxCell>
                <mxCell id="10" value="email" style="text;strokeColor=none;fillColor=default;align=left;verticalAlign=middle;spacingLeft=4;spacingRight=4;overflow=hidden;points=[[0,0.5],[1,0.5]];portConstraint=eastwest;rotatable=0;rounded=0;" parent="2" vertex="1">
                    <mxGeometry y="90" width="140" height="30" as="geometry"/>
                </mxCell>
                <mxCell id="5" value="password" style="text;strokeColor=none;fillColor=default;align=left;verticalAlign=middle;spacingLeft=4;spacingRight=4;overflow=hidden;points=[[0,0.5],[1,0.5]];portConstraint=eastwest;rotatable=0;rounded=0;" parent="2" vertex="1">
                    <mxGeometry y="120" width="140" height="30" as="geometry"/>
                </mxCell>
                <mxCell id="22" style="edgeStyle=none;html=1;entryX=0;entryY=0.5;entryDx=0;entryDy=0;rounded=0;startArrow=none;" parent="1" source="50" target="21" edge="1">
                    <mxGeometry relative="1" as="geometry">
                        <mxPoint x="546" y="-252.0000000000001" as="targetPoint"/>
                    </mxGeometry>
                </mxCell>
                <mxCell id="6" value="teams" style="swimlane;fontStyle=0;childLayout=stackLayout;horizontal=1;startSize=30;horizontalStack=0;resizeParent=1;resizeParentMax=0;resizeLast=0;collapsible=1;marginBottom=0;fillColor=#0050ef;fontColor=#ffffff;strokeColor=#001DBC;rounded=0;" parent="1" vertex="1">
                    <mxGeometry x="374" y="-393" width="140" height="90" as="geometry"/>
                </mxCell>
                <mxCell id="7" value="id" style="text;strokeColor=none;fillColor=default;align=left;verticalAlign=middle;spacingLeft=4;spacingRight=4;overflow=hidden;points=[[0,0.5],[1,0.5]];portConstraint=eastwest;rotatable=0;rounded=0;" parent="6" vertex="1">
                    <mxGeometry y="30" width="140" height="30" as="geometry"/>
                </mxCell>
                <mxCell id="8" value="name" style="text;strokeColor=none;fillColor=default;align=left;verticalAlign=middle;spacingLeft=4;spacingRight=4;overflow=hidden;points=[[0,0.5],[1,0.5]];portConstraint=eastwest;rotatable=0;rounded=0;" parent="6" vertex="1">
                    <mxGeometry y="60" width="140" height="30" as="geometry"/>
                </mxCell>
                <mxCell id="23" style="edgeStyle=none;html=1;entryX=1;entryY=0.5;entryDx=0;entryDy=0;rounded=0;startArrow=none;" parent="1" source="47" target="21" edge="1">
                    <mxGeometry relative="1" as="geometry"/>
                </mxCell>
                <mxCell id="36" style="edgeStyle=none;html=1;entryX=0.5;entryY=1;entryDx=0;entryDy=0;rounded=0;startArrow=none;" parent="1" source="44" target="35" edge="1">
                    <mxGeometry relative="1" as="geometry"/>
                </mxCell>
                <mxCell id="11" value="encounters" style="swimlane;fontStyle=0;childLayout=stackLayout;horizontal=1;startSize=30;horizontalStack=0;resizeParent=1;resizeParentMax=0;resizeLast=0;collapsible=1;marginBottom=0;fillColor=#60a917;fontColor=#ffffff;strokeColor=#2D7600;rounded=0;" parent="1" vertex="1">
                    <mxGeometry x="827" y="-443" width="140" height="240" as="geometry"/>
                </mxCell>
                <mxCell id="12" value="id" style="text;strokeColor=none;fillColor=default;align=left;verticalAlign=middle;spacingLeft=4;spacingRight=4;overflow=hidden;points=[[0,0.5],[1,0.5]];portConstraint=eastwest;rotatable=0;rounded=0;" parent="11" vertex="1">
                    <mxGeometry y="30" width="140" height="30" as="geometry"/>
                </mxCell>
                <mxCell id="13" value="date" style="text;strokeColor=none;fillColor=default;align=left;verticalAlign=middle;spacingLeft=4;spacingRight=4;overflow=hidden;points=[[0,0.5],[1,0.5]];portConstraint=eastwest;rotatable=0;rounded=0;" parent="11" vertex="1">
                    <mxGeometry y="60" width="140" height="30" as="geometry"/>
                </mxCell>
                <mxCell id="38" value="score_team1" style="text;strokeColor=none;fillColor=default;align=left;verticalAlign=middle;spacingLeft=4;spacingRight=4;overflow=hidden;points=[[0,0.5],[1,0.5]];portConstraint=eastwest;rotatable=0;rounded=0;" parent="11" vertex="1">
                    <mxGeometry y="90" width="140" height="30" as="geometry"/>
                </mxCell>
                <mxCell id="39" value="score_team2" style="text;strokeColor=none;fillColor=default;align=left;verticalAlign=middle;spacingLeft=4;spacingRight=4;overflow=hidden;points=[[0,0.5],[1,0.5]];portConstraint=eastwest;rotatable=0;rounded=0;" parent="11" vertex="1">
                    <mxGeometry y="120" width="140" height="30" as="geometry"/>
                </mxCell>
                <mxCell id="52" value="score_team2" style="text;strokeColor=none;fillColor=default;align=left;verticalAlign=middle;spacingLeft=4;spacingRight=4;overflow=hidden;points=[[0,0.5],[1,0.5]];portConstraint=eastwest;rotatable=0;rounded=0;" parent="11" vertex="1">
                    <mxGeometry y="150" width="140" height="30" as="geometry"/>
                </mxCell>
                <mxCell id="14" value="team1" style="text;strokeColor=none;fillColor=default;align=left;verticalAlign=middle;spacingLeft=4;spacingRight=4;overflow=hidden;points=[[0,0.5],[1,0.5]];portConstraint=eastwest;rotatable=0;rounded=0;" parent="11" vertex="1">
                    <mxGeometry y="180" width="140" height="30" as="geometry"/>
                </mxCell>
                <mxCell id="15" value="team2" style="text;strokeColor=none;fillColor=default;align=left;verticalAlign=middle;spacingLeft=4;spacingRight=4;overflow=hidden;points=[[0,0.5],[1,0.5]];portConstraint=eastwest;rotatable=0;rounded=0;" parent="11" vertex="1">
                    <mxGeometry y="210" width="140" height="30" as="geometry"/>
                </mxCell>
                <mxCell id="21" value="to participe" style="ellipse;whiteSpace=wrap;html=1;rounded=0;" parent="1" vertex="1">
                    <mxGeometry x="618" y="-383" width="120" height="80" as="geometry"/>
                </mxCell>
                <mxCell id="35" value="To fill &lt;br&gt;&lt;font style=&quot;font-size: 6px&quot;&gt;(score_team1 &amp;amp; score_team2)&lt;/font&gt;" style="ellipse;whiteSpace=wrap;html=1;rounded=0;" parent="1" vertex="1">
                    <mxGeometry x="831" y="-594" width="120" height="80" as="geometry"/>
                </mxCell>
                <mxCell id="41" value="&lt;font style=&quot;font-size: 16px&quot;&gt;0, n&lt;/font&gt;" style="text;html=1;strokeColor=none;fillColor=none;align=center;verticalAlign=middle;whiteSpace=wrap;rounded=0;fontSize=6;" parent="1" vertex="1">
                    <mxGeometry x="667" y="-571" width="60" height="30" as="geometry"/>
                </mxCell>
                <mxCell id="42" value="" style="edgeStyle=none;html=1;rounded=0;endArrow=none;" parent="1" source="2" target="41" edge="1">
                    <mxGeometry relative="1" as="geometry">
                        <mxPoint x="536" y="-552.5843503127809" as="sourcePoint"/>
                        <mxPoint x="887.004419973307" y="-555.5144866356221" as="targetPoint"/>
                    </mxGeometry>
                </mxCell>
                <mxCell id="44" value="0,n" style="text;html=1;strokeColor=none;fillColor=none;align=center;verticalAlign=middle;whiteSpace=wrap;rounded=0;fontSize=16;" parent="1" vertex="1">
                    <mxGeometry x="861" y="-494" width="60" height="30" as="geometry"/>
                </mxCell>
                <mxCell id="45" value="" style="edgeStyle=none;html=1;entryX=0.5;entryY=1;entryDx=0;entryDy=0;rounded=0;endArrow=none;" parent="1" source="11" target="44" edge="1">
                    <mxGeometry relative="1" as="geometry">
                        <mxPoint x="893.4204545454547" y="-443" as="sourcePoint"/>
                        <mxPoint x="891" y="-514" as="targetPoint"/>
                    </mxGeometry>
                </mxCell>
                <mxCell id="46" value="Text" style="text;html=1;strokeColor=none;fillColor=none;align=center;verticalAlign=middle;whiteSpace=wrap;rounded=0;fontSize=16;" parent="1" vertex="1">
                    <mxGeometry x="800" y="-485" width="60" height="30" as="geometry"/>
                </mxCell>
                <mxCell id="47" value="0,n" style="text;html=1;strokeColor=none;fillColor=none;align=center;verticalAlign=middle;whiteSpace=wrap;rounded=0;fontSize=16;" parent="1" vertex="1">
                    <mxGeometry x="757" y="-357" width="60" height="30" as="geometry"/>
                </mxCell>
                <mxCell id="48" value="" style="edgeStyle=none;html=1;entryX=1;entryY=0.5;entryDx=0;entryDy=0;rounded=0;endArrow=none;" parent="1" source="11" target="47" edge="1">
                    <mxGeometry relative="1" as="geometry">
                        <mxPoint x="827" y="-340.2012578616352" as="sourcePoint"/>
                        <mxPoint x="738.0000000000009" y="-343" as="targetPoint"/>
                    </mxGeometry>
                </mxCell>
                <mxCell id="49" value="Text" style="text;html=1;strokeColor=none;fillColor=none;align=center;verticalAlign=middle;whiteSpace=wrap;rounded=0;fontSize=16;" parent="1" vertex="1">
                    <mxGeometry x="800" y="-485" width="60" height="30" as="geometry"/>
                </mxCell>
                <mxCell id="50" value="0,n" style="text;html=1;strokeColor=none;fillColor=none;align=center;verticalAlign=middle;whiteSpace=wrap;rounded=0;fontSize=16;" parent="1" vertex="1">
                    <mxGeometry x="540" y="-363" width="60" height="30" as="geometry"/>
                </mxCell>
                <mxCell id="51" value="" style="edgeStyle=none;html=1;entryX=0;entryY=0.5;entryDx=0;entryDy=0;rounded=0;endArrow=none;" parent="1" source="6" target="50" edge="1">
                    <mxGeometry relative="1" as="geometry">
                        <mxPoint x="617.9999999999989" y="-343" as="targetPoint"/>
                        <mxPoint x="539" y="-344.06040268456377" as="sourcePoint"/>
                    </mxGeometry>
                </mxCell>
                <mxCell id="53" value="users" style="swimlane;fontStyle=0;childLayout=stackLayout;horizontal=1;startSize=30;horizontalStack=0;resizeParent=1;resizeParentMax=0;resizeLast=0;collapsible=1;marginBottom=0;fillColor=#6a00ff;fontColor=#ffffff;strokeColor=#3700CC;rounded=0;" parent="1" vertex="1">
                    <mxGeometry x="175" y="-44" width="140" height="150" as="geometry"/>
                </mxCell>
                <mxCell id="54" value="id" style="text;strokeColor=default;fillColor=default;align=left;verticalAlign=middle;spacingLeft=4;spacingRight=4;overflow=hidden;points=[[0,0.5],[1,0.5]];portConstraint=eastwest;rotatable=0;rounded=0;" parent="53" vertex="1">
                    <mxGeometry y="30" width="140" height="30" as="geometry"/>
                </mxCell>
                <mxCell id="55" value="username" style="text;strokeColor=none;fillColor=default;align=left;verticalAlign=middle;spacingLeft=4;spacingRight=4;overflow=hidden;points=[[0,0.5],[1,0.5]];portConstraint=eastwest;rotatable=0;rounded=0;" parent="53" vertex="1">
                    <mxGeometry y="60" width="140" height="30" as="geometry"/>
                </mxCell>
                <mxCell id="56" value="email" style="text;strokeColor=none;fillColor=default;align=left;verticalAlign=middle;spacingLeft=4;spacingRight=4;overflow=hidden;points=[[0,0.5],[1,0.5]];portConstraint=eastwest;rotatable=0;rounded=0;" parent="53" vertex="1">
                    <mxGeometry y="90" width="140" height="30" as="geometry"/>
                </mxCell>
                <mxCell id="57" value="password" style="text;strokeColor=none;fillColor=default;align=left;verticalAlign=middle;spacingLeft=4;spacingRight=4;overflow=hidden;points=[[0,0.5],[1,0.5]];portConstraint=eastwest;rotatable=0;rounded=0;" parent="53" vertex="1">
                    <mxGeometry y="120" width="140" height="30" as="geometry"/>
                </mxCell>
                <mxCell id="58" value="matchs" style="swimlane;fontStyle=0;childLayout=stackLayout;horizontal=1;startSize=30;horizontalStack=0;resizeParent=1;resizeParentMax=0;resizeLast=0;collapsible=1;marginBottom=0;fillColor=#60a917;fontColor=#ffffff;strokeColor=#2D7600;rounded=0;" parent="1" vertex="1">
                    <mxGeometry x="446" y="48" width="140" height="240" as="geometry"/>
                </mxCell>
                <mxCell id="59" value="id" style="text;strokeColor=none;fillColor=default;align=left;verticalAlign=middle;spacingLeft=4;spacingRight=4;overflow=hidden;points=[[0,0.5],[1,0.5]];portConstraint=eastwest;rotatable=0;rounded=0;" parent="58" vertex="1">
                    <mxGeometry y="30" width="140" height="30" as="geometry"/>
                </mxCell>
                <mxCell id="60" value="user_id" style="text;strokeColor=none;fillColor=default;align=left;verticalAlign=middle;spacingLeft=4;spacingRight=4;overflow=hidden;points=[[0,0.5],[1,0.5]];portConstraint=eastwest;rotatable=0;rounded=0;" parent="58" vertex="1">
                    <mxGeometry y="60" width="140" height="30" as="geometry"/>
                </mxCell>
                <mxCell id="72" value="date" style="text;strokeColor=none;fillColor=default;align=left;verticalAlign=middle;spacingLeft=4;spacingRight=4;overflow=hidden;points=[[0,0.5],[1,0.5]];portConstraint=eastwest;rotatable=0;rounded=0;" parent="58" vertex="1">
                    <mxGeometry y="90" width="140" height="30" as="geometry"/>
                </mxCell>
                <mxCell id="61" value="score_team1" style="text;strokeColor=none;fillColor=default;align=left;verticalAlign=middle;spacingLeft=4;spacingRight=4;overflow=hidden;points=[[0,0.5],[1,0.5]];portConstraint=eastwest;rotatable=0;rounded=0;" parent="58" vertex="1">
                    <mxGeometry y="120" width="140" height="30" as="geometry"/>
                </mxCell>
                <mxCell id="62" value="score_team2" style="text;strokeColor=none;fillColor=default;align=left;verticalAlign=middle;spacingLeft=4;spacingRight=4;overflow=hidden;points=[[0,0.5],[1,0.5]];portConstraint=eastwest;rotatable=0;rounded=0;" parent="58" vertex="1">
                    <mxGeometry y="150" width="140" height="30" as="geometry"/>
                </mxCell>
                <mxCell id="64" value="team_id1" style="text;strokeColor=none;fillColor=default;align=left;verticalAlign=middle;spacingLeft=4;spacingRight=4;overflow=hidden;points=[[0,0.5],[1,0.5]];portConstraint=eastwest;rotatable=0;rounded=0;" parent="58" vertex="1">
                    <mxGeometry y="180" width="140" height="30" as="geometry"/>
                </mxCell>
                <mxCell id="65" value="team_id2" style="text;strokeColor=none;fillColor=default;align=left;verticalAlign=middle;spacingLeft=4;spacingRight=4;overflow=hidden;points=[[0,0.5],[1,0.5]];portConstraint=eastwest;rotatable=0;rounded=0;" parent="58" vertex="1">
                    <mxGeometry y="210" width="140" height="30" as="geometry"/>
                </mxCell>
                <mxCell id="66" value="teams" style="swimlane;fontStyle=0;childLayout=stackLayout;horizontal=1;startSize=30;horizontalStack=0;resizeParent=1;resizeParentMax=0;resizeLast=0;collapsible=1;marginBottom=0;fillColor=#0050ef;fontColor=#ffffff;strokeColor=default;rounded=0;" parent="1" vertex="1">
                    <mxGeometry x="706" y="168" width="140" height="90" as="geometry"/>
                </mxCell>
                <mxCell id="67" value="id" style="text;strokeColor=none;fillColor=default;align=left;verticalAlign=middle;spacingLeft=4;spacingRight=4;overflow=hidden;points=[[0,0.5],[1,0.5]];portConstraint=eastwest;rotatable=0;rounded=0;" parent="66" vertex="1">
                    <mxGeometry y="30" width="140" height="30" as="geometry"/>
                </mxCell>
                <mxCell id="68" value="name" style="text;strokeColor=none;fillColor=default;align=left;verticalAlign=middle;spacingLeft=4;spacingRight=4;overflow=hidden;points=[[0,0.5],[1,0.5]];portConstraint=eastwest;rotatable=0;rounded=0;" parent="66" vertex="1">
                    <mxGeometry y="60" width="140" height="30" as="geometry"/>
                </mxCell>
                <mxCell id="92" style="edgeStyle=elbowEdgeStyle;html=1;exitX=0;exitY=0.5;exitDx=0;exitDy=0;entryX=1;entryY=0.5;entryDx=0;entryDy=0;rounded=0;startArrow=classic;startFill=1;" parent="1" source="60" target="54" edge="1">
                    <mxGeometry relative="1" as="geometry"/>
                </mxCell>
                <mxCell id="93" style="edgeStyle=elbowEdgeStyle;rounded=0;html=1;startArrow=classic;startFill=1;entryX=1;entryY=0.5;entryDx=0;entryDy=0;exitX=0;exitY=0.5;exitDx=0;exitDy=0;" parent="1" source="66" target="64" edge="1">
                    <mxGeometry relative="1" as="geometry">
                        <mxPoint x="590.4797859191895" y="246.5425567626953" as="targetPoint"/>
                        <mxPoint x="669" y="201" as="sourcePoint"/>
                        <Array as="points">
                            <mxPoint x="623" y="221"/>
                            <mxPoint x="634" y="237"/>
                            <mxPoint x="634" y="276"/>
                        </Array>
                    </mxGeometry>
                </mxCell>
                <mxCell id="95" style="edgeStyle=elbowEdgeStyle;rounded=0;html=1;entryX=1;entryY=0.5;entryDx=0;entryDy=0;startArrow=classic;startFill=1;exitX=0;exitY=0.5;exitDx=0;exitDy=0;" parent="1" source="66" target="65" edge="1">
                    <mxGeometry relative="1" as="geometry">
                        <mxPoint x="671" y="173" as="sourcePoint"/>
                        <Array as="points">
                            <mxPoint x="641" y="233"/>
                        </Array>
                    </mxGeometry>
                </mxCell>
            </root>
        </mxGraphModel>
    </diagram>
</mxfile>